<svg width="18" height="15" viewBox="0 0 18 15" fill="none" xmlns="http://www.w3.org/2000/svg">
    <path d="M9.00008 10.7778C8.54175 10.7778 8.14939 10.6146 7.823 10.2882C7.49661 9.96186 7.33342 9.5695 7.33342 9.11117C7.33342 8.65283 7.49661 8.26047 7.823 7.93408C8.14939 7.60769 8.54175 7.4445 9.00008 7.4445C9.45842 7.4445 9.85078 7.60769 10.1772 7.93408C10.5036 8.26047 10.6667 8.65283 10.6667 9.11117C10.6667 9.5695 10.5036 9.96186 10.1772 10.2882C9.85078 10.6146 9.45842 10.7778 9.00008 10.7778ZM5.04175 12.1737C4.7223 11.7431 4.46883 11.2709 4.28133 10.757C4.09383 10.2431 4.00008 9.6945 4.00008 9.11117C4.00008 7.72228 4.48619 6.54172 5.45842 5.5695C6.43064 4.59728 7.61119 4.11117 9.00008 4.11117C10.389 4.11117 11.5695 4.59728 12.5417 5.5695C13.514 6.54172 14.0001 7.72228 14.0001 9.11117C14.0001 9.6945 13.9063 10.2501 13.7188 10.7778C13.5313 11.3056 13.2779 11.7778 12.9584 12.1945C12.8195 12.3751 12.6355 12.4653 12.4063 12.4653C12.1772 12.4653 11.9723 12.3751 11.7917 12.1945C11.639 12.0417 11.5591 11.8542 11.5522 11.632C11.5452 11.4098 11.6112 11.1945 11.7501 10.9862C11.9445 10.7084 12.0904 10.4132 12.1876 10.1007C12.2848 9.78825 12.3334 9.45839 12.3334 9.11117C12.3334 8.1945 12.007 7.40978 11.3542 6.757C10.7015 6.10422 9.91675 5.77783 9.00008 5.77783C8.08342 5.77783 7.29869 6.10422 6.64592 6.757C5.99314 7.40978 5.66675 8.1945 5.66675 9.11117C5.66675 9.47228 5.71883 9.80561 5.823 10.1112C5.92717 10.4167 6.06953 10.7084 6.25008 10.9862C6.38897 11.1945 6.45147 11.4132 6.43758 11.6424C6.42369 11.8716 6.34036 12.0626 6.18758 12.2153C6.02092 12.382 5.823 12.4619 5.59383 12.4549C5.36467 12.448 5.18064 12.3542 5.04175 12.1737ZM2.68758 14.5487C2.06258 13.8126 1.56953 12.9827 1.20841 12.0591C0.847304 11.1355 0.666748 10.1528 0.666748 9.11117C0.666748 7.95839 0.885498 6.87505 1.323 5.86117C1.7605 4.84728 2.35425 3.96533 3.10425 3.21533C3.85425 2.46533 4.73619 1.87158 5.75008 1.43408C6.76397 0.996582 7.8473 0.777832 9.00008 0.777832C10.1529 0.777832 11.2362 0.996582 12.2501 1.43408C13.264 1.87158 14.1459 2.46533 14.8959 3.21533C15.6459 3.96533 16.2397 4.84728 16.6772 5.86117C17.1147 6.87505 17.3334 7.95839 17.3334 9.11117C17.3334 10.1528 17.1529 11.1389 16.7917 12.0695C16.4306 13.0001 15.9376 13.8334 15.3126 14.5695C15.1598 14.7362 14.9723 14.8195 14.7501 14.8195C14.5279 14.8195 14.3334 14.7362 14.1667 14.5695C14.014 14.4167 13.9341 14.2257 13.9272 13.9966C13.9202 13.7674 13.9931 13.5626 14.1459 13.382C14.6181 12.7987 14.9897 12.1459 15.2605 11.4237C15.5313 10.7014 15.6667 9.93061 15.6667 9.11117C15.6667 7.25005 15.0209 5.67367 13.7292 4.382C12.4376 3.09033 10.8612 2.4445 9.00008 2.4445C7.13897 2.4445 5.56258 3.09033 4.27092 4.382C2.97925 5.67367 2.33341 7.25005 2.33341 9.11117C2.33341 9.93061 2.46883 10.698 2.73966 11.4132C3.0105 12.1285 3.38897 12.7778 3.87508 13.3612C4.02786 13.5417 4.10078 13.7466 4.09383 13.9757C4.08689 14.2049 4.00008 14.4028 3.83341 14.5695C3.66675 14.7362 3.4723 14.816 3.25008 14.8091C3.02786 14.8021 2.84036 14.7153 2.68758 14.5487Z" fill="#2188FF"/>
</svg>
